<svg data-name="icon_google@" xmlns="http://www.w3.org/2000/svg" width="33" height="33"><defs><filter id="a" x="1215.97" y="3296" width="19.03" height="20" filterUnits="userSpaceOnUse"><feOffset result="offset" dx="1" dy="1.732" in="SourceAlpha"/><feGaussianBlur result="blur" stdDeviation="1.414"/><feFlood result="flood" flood-opacity=".34"/><feComposite result="composite" operator="in" in2="blur"/><feBlend result="blend" in="SourceGraphic"/></filter></defs><circle cx="16.5" cy="16.5" r="14" fill="none" stroke="#fff" stroke-linejoin="round"/><path d="M1231.74 3299.5h-2.36v2.33h-1.19v-2.33h-2.36v-1.17h2.36V3296h1.19v2.33h2.36v1.17zm-8.42-2.41a2.743 2.743 0 01.43.34 3.794 3.794 0 01.45.55 3.928 3.928 0 01.37.74 3.285 3.285 0 01.14.99 2.877 2.877 0 01-.49 1.67 5.23 5.23 0 01-.48.56c-.18.17-.38.34-.59.52a2.656 2.656 0 00-.34.4.906.906 0 00-.18.55.663.663 0 00.19.5 3.452 3.452 0 00.3.34l.69.54a6.49 6.49 0 011.12 1.1 2.677 2.677 0 01.48 1.61 3.2 3.2 0 01-1.3 2.5 6.063 6.063 0 01-3.9 1.16 5.026 5.026 0 01-3.18-.87 2.3 2.3 0 01-1.06-1.89 2.619 2.619 0 01.34-1.2 2.925 2.925 0 011.22-1.16 6.377 6.377 0 012.07-.72 15.8 15.8 0 011.78-.17 3.764 3.764 0 01-.39-.59 1.339 1.339 0 01-.2-.74.876.876 0 01.08-.42c.04-.12.08-.24.12-.34a5.029 5.029 0 01-.65.04 3.2 3.2 0 01-2.47-.97 2.874 2.874 0 01-.89-2.07 3.483 3.483 0 011.26-2.6 4.6 4.6 0 011.8-.89 9 9 0 011.73-.18h4.05l-1.25.7h-1.25zm-2.64 8.62a8.649 8.649 0 00-1.28.28c-.11.04-.25.09-.44.17a2.507 2.507 0 00-.57.35 2 2 0 00-.48.59 1.739 1.739 0 00-.22.88 1.965 1.965 0 00.97 1.69 4.308 4.308 0 002.52.68 3.612 3.612 0 002.19-.6 1.9 1.9 0 00.23-2.78 12.525 12.525 0 00-1.67-1.27 3.1 3.1 0 00-.45-.02 5.124 5.124 0 00-.8.03zm1.69-7.41a2.427 2.427 0 00-.76-.91 1.97 1.97 0 00-1.1-.35 1.81 1.81 0 00-1.37.63 2.317 2.317 0 00-.44 1.44 4.443 4.443 0 00.64 2.19 2.915 2.915 0 00.81.9 1.8 1.8 0 001.13.37 1.524 1.524 0 001.66-1.3 6.069 6.069 0 00.05-.66 4.915 4.915 0 00-.62-2.31z" transform="translate(-1206.5 -3286.5)" fill="#fff" fill-rule="evenodd" filter="url(#a)"/></svg>