<svg data-name="icon_linkedin@" xmlns="http://www.w3.org/2000/svg" width="34" height="34"><defs><filter id="a" x="1169.97" y="3293.62" width="17.03" height="18.38" filterUnits="userSpaceOnUse"><feOffset result="offset" dx="1" dy="1.732" in="SourceAlpha"/><feGaussianBlur result="blur" stdDeviation="1.414"/><feFlood result="flood" flood-opacity=".4"/><feComposite result="composite" operator="in" in2="blur"/><feBlend result="blend" in="SourceGraphic"/></filter></defs><circle cx="17" cy="17" r="14.19" fill="none" stroke="#fff" stroke-linejoin="round"/><path d="M1180.54 3307.24v-4.64c0-1.17-.28-1.97-1.34-1.97a1.692 1.692 0 00-1.56 1.06 1.88 1.88 0 00-.1.7v4.85h-3.03s.04-8.27 0-9.08h3.03v1.63a.053.053 0 01-.02.03h.02v-.03a3.623 3.623 0 012.94-1.65c1.91 0 3.12 1.46 3.12 4.12v4.98h-3.06zm-10.58-9.08h3.05v9.08h-3.05v-9.08zm1.54-1.51a1.51 1.51 0 111.51-1.51 1.509 1.509 0 01-1.51 1.51z" transform="translate(-1159.5 -3285.5)" fill="#fff" fill-rule="evenodd" filter="url(#a)"/></svg>