<svg data-name="icon_twitter@" xmlns="http://www.w3.org/2000/svg" width="33" height="33"><defs><filter id="a" x="1261.81" y="3296" width="21.19" height="17" filterUnits="userSpaceOnUse"><feOffset result="offset" dx=".5" dy=".866" in="SourceAlpha"/><feGaussianBlur result="blur" stdDeviation="1"/><feFlood result="flood" flood-opacity=".34"/><feComposite result="composite" operator="in" in2="blur"/><feBlend result="blend" in="SourceGraphic"/></filter></defs><circle cx="16.5" cy="16.5" r="14" fill="none" stroke="#fff" stroke-linejoin="round"/><path d="M1279.32 3297.66a7.378 7.378 0 01-2.06.56 3.574 3.574 0 001.58-1.96 7.216 7.216 0 01-2.28.86 3.613 3.613 0 00-2.63-1.11 3.537 3.537 0 00-3.5 4.33 10.253 10.253 0 01-7.4-3.69 3.469 3.469 0 00-.49 1.78 3.543 3.543 0 001.6 2.94 3.734 3.734 0 01-1.63-.44v.04a3.545 3.545 0 002.89 3.46 3.754 3.754 0 01-.95.13 3.078 3.078 0 01-.68-.07 3.6 3.6 0 003.36 2.46 7.334 7.334 0 01-4.46 1.51 8.108 8.108 0 01-.86-.05 10.324 10.324 0 005.51 1.59 10.064 10.064 0 0010.22-10.05c0-.16 0-.31-.01-.46a7.24 7.24 0 001.79-1.83z" transform="translate(-1253.5 -3286.5)" fill="#fff" fill-rule="evenodd" filter="url(#a)"/></svg>